<mxfile host="app.diagrams.net" modified="2023-08-17T10:40:33.607Z" agent="Mozilla/5.0 (Windows NT 10.0; Win64; x64; rv:109.0) Gecko/20100101 Firefox/116.0" version="21.6.8" etag="Bo6eY83nJMnm7Skq0fZu" type="github">
  <diagram name="PÃ¡gina-1" id="1aOJf_cbAEOuJnOJcCTv">
    <mxGraphModel>
      <root>
        <mxCell id="0" />
        <mxCell id="1" parent="0" />
      </root>
    </mxGraphModel>
  </diagram>
</mxfile>
